<svg width="28" height="28" viewBox="0 0 28 28" fill="none" xmlns="http://www.w3.org/2000/svg">
<path d="M16.0725 18.5845C16.0725 20.8077 15.1053 22.8174 13.5604 24.1865C12.229 25.3923 10.4705 26.1208 8.53624 26.1208C4.37875 26.1208 1 22.742 1 18.5845C1 15.1179 3.36135 12.1787 6.55169 11.3121C7.41836 13.4976 9.2773 15.1807 11.5759 15.8087C12.2039 15.9845 12.8696 16.0725 13.5604 16.0725C14.2512 16.0725 14.9169 15.9845 15.5449 15.8087C15.8841 16.6628 16.0725 17.6048 16.0725 18.5845Z" stroke="white" stroke-width="2" stroke-linecap="round" stroke-linejoin="round"/>
<path d="M21.0966 8.53624C21.0966 9.51595 20.9082 10.458 20.5691 11.3121C19.7024 13.4976 17.8435 15.1807 15.5449 15.8087C14.9169 15.9845 14.2512 16.0725 13.5604 16.0725C12.8696 16.0725 12.2039 15.9845 11.5759 15.8087C9.27731 15.1807 7.41837 13.4976 6.55171 11.3121C6.21258 10.458 6.02417 9.51595 6.02417 8.53624C6.02417 4.37875 9.40292 1 13.5604 1C17.7179 1 21.0966 4.37875 21.0966 8.53624Z" stroke="white" stroke-width="2" stroke-linecap="round" stroke-linejoin="round"/>
<path d="M26.1208 18.5845C26.1208 22.742 22.7421 26.1208 18.5846 26.1208C16.6503 26.1208 14.8918 25.3923 13.5604 24.1865C15.1054 22.8174 16.0725 20.8077 16.0725 18.5845C16.0725 17.6048 15.8841 16.6628 15.545 15.8087C17.8435 15.1807 19.7025 13.4976 20.5691 11.3121C23.7595 12.1787 26.1208 15.1179 26.1208 18.5845Z" stroke="white" stroke-width="2" stroke-linecap="round" stroke-linejoin="round"/>
</svg>
