<svg width="21" height="24" viewBox="0 0 21 24" fill="none" xmlns="http://www.w3.org/2000/svg">
<path d="M3.54305 20.0159C2.88612 20.0159 2.27228 19.7896 1.83074 19.3696C1.27074 18.8419 1.00151 18.045 1.09843 17.1835L1.49689 13.6942C1.57228 13.0373 1.97074 12.165 2.43382 11.6912L11.2754 2.33274C13.4831 -0.00417912 15.7877 -0.0687944 18.1246 2.1389C20.4615 4.34659 20.5261 6.65121 18.3184 8.98813L9.4769 18.3465C9.0246 18.8312 8.18459 19.2835 7.52766 19.3913L4.05997 19.9835C3.87689 19.9942 3.71535 20.0159 3.54305 20.0159ZM14.7323 2.12813C13.9031 2.12813 13.1815 2.64505 12.4492 3.42044L3.60766 12.7897C3.39228 13.0159 3.14458 13.5543 3.10151 13.8666L2.70305 17.3558C2.65997 17.7112 2.74612 18.0019 2.93997 18.185C3.13382 18.3681 3.42458 18.4327 3.77997 18.3788L7.24766 17.7866C7.55997 17.7328 8.07689 17.4527 8.29228 17.2265L17.1338 7.86813C18.4692 6.44659 18.9538 5.13275 17.0046 3.30198C16.1431 2.47275 15.4 2.12813 14.7323 2.12813Z" fill="white"/>
<path d="M16.2512 10.7863C16.2297 10.7863 16.1973 10.7863 16.1758 10.7863C12.8158 10.4525 10.1127 7.90022 9.59581 4.56176C9.5312 4.12022 9.83273 3.71099 10.2743 3.63561C10.7158 3.57099 11.125 3.87253 11.2004 4.31407C11.6097 6.92022 13.7204 8.9233 16.3481 9.18176C16.7897 9.22484 17.1127 9.6233 17.0697 10.0648C17.0158 10.474 16.6604 10.7863 16.2512 10.7863Z" fill="white"/>
<path d="M20.1923 23.4942H0.807692C0.366154 23.4942 0 23.1281 0 22.6865C0 22.245 0.366154 21.8788 0.807692 21.8788H20.1923C20.6338 21.8788 21 22.245 21 22.6865C21 23.1281 20.6338 23.4942 20.1923 23.4942Z" fill="white"/>
</svg>
